<mxfile host="drawio-plugin" modified="2022-10-05T18:27:07.567Z" agent="5.0 (Windows NT 6.2; Win64; x64) AppleWebKit/537.36 (KHTML, like Gecko) Chrome/89.0.4389.114 Safari/537.36" etag="5XChMWf7ahiu4UdJcMk-" version="15.5.4" type="embed" pages="2"><diagram name="UML" id="c4acf3e9-155e-7222-9cf6-157b1a14988f"><mxGraphModel dx="1123" dy="749" grid="1" gridSize="10" guides="1" tooltips="1" connect="1" arrows="1" fold="1" page="1" pageScale="1" pageWidth="850" pageHeight="1100" background="#F1FAEE" math="0" shadow="0"><root><mxCell id="0"/><mxCell id="1" parent="0"/><mxCell id="LL6WG3zJazqylDvjvsI3-2" value="Model" style="shape=umlFrame;whiteSpace=wrap;html=1;strokeColor=#457B9D;fontColor=#1D3557;fillColor=#A8DADC;" parent="1" vertex="1"><mxGeometry x="10" y="10" width="1680" height="1080" as="geometry"/></mxCell><mxCell id="uTbUy44ZjTVFhdo3Ikel-1" value="Municipality" style="swimlane;fontStyle=1;align=center;verticalAlign=top;childLayout=stackLayout;horizontal=1;startSize=26;horizontalStack=0;resizeParent=1;resizeParentMax=0;resizeLast=0;collapsible=1;marginBottom=0;fillColor=#A8DADC;strokeColor=#457B9D;fontColor=#1D3557;" parent="1" vertex="1"><mxGeometry x="70" y="80" width="310" height="160" as="geometry"/></mxCell><mxCell id="uTbUy44ZjTVFhdo3Ikel-2" value="- name: String&#10;- ID: int&#10;- electionParticipation: HashMap&lt;Integer, Double&gt;&#10;" style="text;strokeColor=none;fillColor=none;align=left;verticalAlign=top;spacingLeft=4;spacingRight=4;overflow=hidden;rotatable=0;points=[[0,0.5],[1,0.5]];portConstraint=eastwest;fontColor=#1D3557;" parent="uTbUy44ZjTVFhdo3Ikel-1" vertex="1"><mxGeometry y="26" width="310" height="54" as="geometry"/></mxCell><mxCell id="uTbUy44ZjTVFhdo3Ikel-3" value="" style="line;strokeWidth=1;fillColor=none;align=left;verticalAlign=middle;spacingTop=-1;spacingLeft=3;spacingRight=3;rotatable=0;labelPosition=right;points=[];portConstraint=eastwest;strokeColor=#457B9D;fontColor=#1D3557;labelBackgroundColor=#F1FAEE;" parent="uTbUy44ZjTVFhdo3Ikel-1" vertex="1"><mxGeometry y="80" width="310" height="8" as="geometry"/></mxCell><mxCell id="uTbUy44ZjTVFhdo3Ikel-4" value="+ getID(): int&#10;+ addElectionParticipation(int, double): void&#10;+ getElectionParticipation(): HashMap&lt;Integer, Double&gt;&#10;+ getElectionParticipationByYear(int): double" style="text;strokeColor=none;fillColor=none;align=left;verticalAlign=top;spacingLeft=4;spacingRight=4;overflow=hidden;rotatable=0;points=[[0,0.5],[1,0.5]];portConstraint=eastwest;fontColor=#1D3557;" parent="uTbUy44ZjTVFhdo3Ikel-1" vertex="1"><mxGeometry y="88" width="310" height="72" as="geometry"/></mxCell><mxCell id="uTbUy44ZjTVFhdo3Ikel-22" value="HTTPClient" style="swimlane;fontStyle=1;align=center;verticalAlign=top;childLayout=stackLayout;horizontal=1;startSize=26;horizontalStack=0;resizeParent=1;resizeParentMax=0;resizeLast=0;collapsible=1;marginBottom=0;strokeColor=#457B9D;fontColor=#1D3557;fillColor=#A8DADC;" parent="1" vertex="1"><mxGeometry x="410" y="210" width="230" height="70" as="geometry"/></mxCell><mxCell id="uTbUy44ZjTVFhdo3Ikel-25" value="+ sendGet(): StringBuilder&#10;+ sendPost(String, String): StringBuilder&#10;" style="text;strokeColor=none;fillColor=none;align=left;verticalAlign=top;spacingLeft=4;spacingRight=4;overflow=hidden;rotatable=0;points=[[0,0.5],[1,0.5]];portConstraint=eastwest;fontColor=#1D3557;" parent="uTbUy44ZjTVFhdo3Ikel-22" vertex="1"><mxGeometry y="26" width="230" height="44" as="geometry"/></mxCell><mxCell id="uTbUy44ZjTVFhdo3Ikel-26" value="QueryTabels" style="swimlane;fontStyle=1;align=center;verticalAlign=top;childLayout=stackLayout;horizontal=1;startSize=26;horizontalStack=0;resizeParent=1;resizeParentMax=0;resizeLast=0;collapsible=1;marginBottom=0;strokeColor=#457B9D;fontColor=#1D3557;fillColor=#A8DADC;" parent="1" vertex="1"><mxGeometry x="400" y="356" width="230" height="104" as="geometry"/></mxCell><mxCell id="uTbUy44ZjTVFhdo3Ikel-27" value="- httpClient:HTTPClientSet&#10;- municipalities: HashSet&lt;Municipality&gt;&#10;" style="text;strokeColor=none;fillColor=none;align=left;verticalAlign=top;spacingLeft=4;spacingRight=4;overflow=hidden;rotatable=0;points=[[0,0.5],[1,0.5]];portConstraint=eastwest;fontColor=#1D3557;" parent="uTbUy44ZjTVFhdo3Ikel-26" vertex="1"><mxGeometry y="26" width="230" height="44" as="geometry"/></mxCell><mxCell id="uTbUy44ZjTVFhdo3Ikel-28" value="" style="line;strokeWidth=1;fillColor=none;align=left;verticalAlign=middle;spacingTop=-1;spacingLeft=3;spacingRight=3;rotatable=0;labelPosition=right;points=[];portConstraint=eastwest;strokeColor=#457B9D;fontColor=#1D3557;labelBackgroundColor=#F1FAEE;" parent="uTbUy44ZjTVFhdo3Ikel-26" vertex="1"><mxGeometry y="70" width="230" height="8" as="geometry"/></mxCell><mxCell id="uTbUy44ZjTVFhdo3Ikel-29" value="+ testshowstuff(String): void" style="text;strokeColor=none;fillColor=none;align=left;verticalAlign=top;spacingLeft=4;spacingRight=4;overflow=hidden;rotatable=0;points=[[0,0.5],[1,0.5]];portConstraint=eastwest;fontColor=#1D3557;" parent="uTbUy44ZjTVFhdo3Ikel-26" vertex="1"><mxGeometry y="78" width="230" height="26" as="geometry"/></mxCell><mxCell id="3" value="Extends" style="endArrow=block;endSize=16;endFill=0;html=1;rounded=0;strokeColor=#457B9D;fontColor=#1D3557;entryX=-0.004;entryY=0.318;entryDx=0;entryDy=0;exitX=1;exitY=0.5;exitDx=0;exitDy=0;entryPerimeter=0;labelBackgroundColor=#F1FAEE;" parent="1" source="5" target="uTbUy44ZjTVFhdo3Ikel-27" edge="1"><mxGeometry width="160" relative="1" as="geometry"><mxPoint x="480" y="550" as="sourcePoint"/><mxPoint x="640" y="550" as="targetPoint"/></mxGeometry></mxCell><mxCell id="4" value="ParticpationMunicipality" style="swimlane;fontStyle=1;align=center;verticalAlign=top;childLayout=stackLayout;horizontal=1;startSize=26;horizontalStack=0;resizeParent=1;resizeParentMax=0;resizeLast=0;collapsible=1;marginBottom=0;fillColor=#A8DADC;strokeColor=#457B9D;fontColor=#1D3557;" parent="1" vertex="1"><mxGeometry x="80" y="360" width="235" height="100" as="geometry"/></mxCell><mxCell id="5" value="- municipalities: ArrayList&lt;Municipality&gt;" style="text;align=left;verticalAlign=top;spacingLeft=4;spacingRight=4;overflow=hidden;rotatable=0;points=[[0,0.5],[1,0.5]];portConstraint=eastwest;fontColor=#1D3557;" parent="4" vertex="1"><mxGeometry y="26" width="235" height="26" as="geometry"/></mxCell><mxCell id="6" value="" style="line;strokeWidth=1;fillColor=#A8DADC;align=left;verticalAlign=middle;spacingTop=-1;spacingLeft=3;spacingRight=3;rotatable=0;labelPosition=right;points=[];portConstraint=eastwest;strokeColor=#457B9D;fontColor=#1D3557;labelBackgroundColor=#F1FAEE;" parent="4" vertex="1"><mxGeometry y="52" width="235" height="8" as="geometry"/></mxCell><mxCell id="7" value="+ municipalityExists(int): Municipality&#10;+ getMuni(): ArrayList&lt;Municipality&gt;" style="text;align=left;verticalAlign=top;spacingLeft=4;spacingRight=4;overflow=hidden;rotatable=0;points=[[0,0.5],[1,0.5]];portConstraint=eastwest;fontColor=#1D3557;" parent="4" vertex="1"><mxGeometry y="60" width="235" height="40" as="geometry"/></mxCell><mxCell id="8" value="Use" style="endArrow=open;endSize=12;dashed=1;html=1;rounded=1;sketch=0;fontColor=#1D3557;strokeColor=#457B9D;fillColor=#A8DADC;curved=0;exitX=0.5;exitY=0;exitDx=0;exitDy=0;entryX=0.403;entryY=1;entryDx=0;entryDy=0;entryPerimeter=0;labelBackgroundColor=#F1FAEE;" parent="1" source="4" target="uTbUy44ZjTVFhdo3Ikel-4" edge="1"><mxGeometry width="160" relative="1" as="geometry"><mxPoint x="500" y="390" as="sourcePoint"/><mxPoint x="660" y="390" as="targetPoint"/></mxGeometry></mxCell><mxCell id="9" value="Use" style="endArrow=open;endSize=12;dashed=1;html=1;rounded=1;sketch=0;fontColor=#1D3557;strokeColor=#457B9D;fillColor=#A8DADC;curved=0;entryX=0.478;entryY=0.977;entryDx=0;entryDy=0;entryPerimeter=0;exitX=0.53;exitY=0.01;exitDx=0;exitDy=0;exitPerimeter=0;labelBackgroundColor=#F1FAEE;" parent="1" source="uTbUy44ZjTVFhdo3Ikel-26" target="uTbUy44ZjTVFhdo3Ikel-25" edge="1"><mxGeometry width="160" relative="1" as="geometry"><mxPoint x="500" y="390" as="sourcePoint"/><mxPoint x="660" y="390" as="targetPoint"/></mxGeometry></mxCell><mxCell id="10" value="" style="endArrow=open;startArrow=circlePlus;endFill=0;startFill=0;endSize=8;html=1;rounded=1;sketch=0;fontColor=#1D3557;strokeColor=#457B9D;fillColor=#A8DADC;curved=0;exitX=0.443;exitY=1.05;exitDx=0;exitDy=0;exitPerimeter=0;entryX=0.5;entryY=0;entryDx=0;entryDy=0;labelBackgroundColor=#F1FAEE;" parent="1" source="7" target="11" edge="1"><mxGeometry width="160" relative="1" as="geometry"><mxPoint x="310" y="620" as="sourcePoint"/><mxPoint x="470" y="620" as="targetPoint"/></mxGeometry></mxCell><mxCell id="11" value="Autocompleter" style="swimlane;fontStyle=1;align=center;verticalAlign=top;childLayout=stackLayout;horizontal=1;startSize=26;horizontalStack=0;resizeParent=1;resizeParentMax=0;resizeLast=0;collapsible=1;marginBottom=0;rounded=0;sketch=0;fontColor=#1D3557;strokeColor=#457B9D;fillColor=#A8DADC;" parent="1" vertex="1"><mxGeometry x="80" y="520" width="210" height="100" as="geometry"/></mxCell><mxCell id="12" value="- dictionary: Municipality[]" style="text;strokeColor=none;fillColor=none;align=left;verticalAlign=top;spacingLeft=4;spacingRight=4;overflow=hidden;rotatable=0;points=[[0,0.5],[1,0.5]];portConstraint=eastwest;rounded=0;sketch=0;fontColor=#1D3557;" parent="11" vertex="1"><mxGeometry y="26" width="210" height="26" as="geometry"/></mxCell><mxCell id="13" value="" style="line;strokeWidth=1;fillColor=none;align=left;verticalAlign=middle;spacingTop=-1;spacingLeft=3;spacingRight=3;rotatable=0;labelPosition=right;points=[];portConstraint=eastwest;rounded=0;sketch=0;fontColor=#1D3557;strokeColor=#457B9D;labelBackgroundColor=#F1FAEE;" parent="11" vertex="1"><mxGeometry y="52" width="210" height="8" as="geometry"/></mxCell><mxCell id="14" value="+ numberOfMatches(String): int&#10;+ allMatches(String): List&lt;Municipality&gt;" style="text;strokeColor=none;fillColor=none;align=left;verticalAlign=top;spacingLeft=4;spacingRight=4;overflow=hidden;rotatable=0;points=[[0,0.5],[1,0.5]];portConstraint=eastwest;rounded=0;sketch=0;fontColor=#1D3557;" parent="11" vertex="1"><mxGeometry y="60" width="210" height="40" as="geometry"/></mxCell><mxCell id="23" value="RangeBinarySearch" style="swimlane;fontStyle=1;align=center;verticalAlign=top;childLayout=stackLayout;horizontal=1;startSize=26;horizontalStack=0;resizeParent=1;resizeParentMax=0;resizeLast=0;collapsible=1;marginBottom=0;rounded=0;sketch=0;fontColor=#1D3557;strokeColor=#457B9D;fillColor=#A8DADC;" vertex="1" parent="1"><mxGeometry x="400" y="560" width="240" height="70" as="geometry"/></mxCell><mxCell id="26" value="+ firstIndexOf(T[], T, Comparator&lt;T&gt;): int&#10;+ lastIndexOf(T[], T, Comparator&lt;T&gt;): int" style="text;strokeColor=none;fillColor=none;align=left;verticalAlign=top;spacingLeft=4;spacingRight=4;overflow=hidden;rotatable=0;points=[[0,0.5],[1,0.5]];portConstraint=eastwest;rounded=0;sketch=0;fontColor=#1D3557;" vertex="1" parent="23"><mxGeometry y="26" width="240" height="44" as="geometry"/></mxCell><mxCell id="27" value="Use" style="endArrow=open;endSize=12;dashed=1;html=1;rounded=1;sketch=0;fontColor=#1D3557;strokeColor=#457B9D;fillColor=#A8DADC;curved=0;exitX=1;exitY=0.5;exitDx=0;exitDy=0;entryX=0;entryY=0.273;entryDx=0;entryDy=0;entryPerimeter=0;labelBackgroundColor=#F1FAEE;" edge="1" parent="1" source="14" target="26"><mxGeometry width="160" relative="1" as="geometry"><mxPoint x="400" y="500" as="sourcePoint"/><mxPoint x="560" y="500" as="targetPoint"/></mxGeometry></mxCell></root></mxGraphModel></diagram><diagram id="64viDTuuVe07qqMQ3jQS" name="Model-ViewController"><mxGraphModel dx="1422" dy="790" grid="1" gridSize="10" guides="1" tooltips="1" connect="1" arrows="1" fold="1" page="1" pageScale="1" pageWidth="850" pageHeight="1100" math="0" shadow="0"><root><mxCell id="0"/><mxCell id="1" parent="0"/><mxCell id="vG7e0uvmuCL2b80HBoI5-1" value="&lt;div&gt;Model&lt;/div&gt;" style="ellipse;whiteSpace=wrap;html=1;strokeColor=#006658;fontColor=#5C5C5C;fillColor=#21C0A5;" parent="1" vertex="1"><mxGeometry x="40" y="40" width="140" height="70" as="geometry"/></mxCell><mxCell id="vG7e0uvmuCL2b80HBoI5-2" value="ViewController" style="ellipse;whiteSpace=wrap;html=1;strokeColor=#006658;fontColor=#5C5C5C;fillColor=#21C0A5;" parent="1" vertex="1"><mxGeometry x="240" y="40" width="140" height="70" as="geometry"/></mxCell><mxCell id="vG7e0uvmuCL2b80HBoI5-3" value="" style="endArrow=open;endFill=1;endSize=12;html=1;rounded=0;strokeColor=#006658;fontColor=#5C5C5C;fillColor=#21C0A5;exitX=1;exitY=0;exitDx=0;exitDy=0;entryX=0;entryY=0;entryDx=0;entryDy=0;" parent="1" source="vG7e0uvmuCL2b80HBoI5-1" target="vG7e0uvmuCL2b80HBoI5-2" edge="1"><mxGeometry width="160" relative="1" as="geometry"><mxPoint x="120" y="80" as="sourcePoint"/><mxPoint x="280" y="80" as="targetPoint"/></mxGeometry></mxCell><mxCell id="705-Hi0TVfFXUjYXrDiP-1" value="" style="endArrow=open;endFill=1;endSize=12;html=1;rounded=0;strokeColor=#006658;fontColor=#5C5C5C;fillColor=#21C0A5;exitX=0;exitY=1;exitDx=0;exitDy=0;entryX=1;entryY=1;entryDx=0;entryDy=0;strokeWidth=1;" parent="1" source="vG7e0uvmuCL2b80HBoI5-2" target="vG7e0uvmuCL2b80HBoI5-1" edge="1"><mxGeometry width="160" relative="1" as="geometry"><mxPoint x="189.99747468305827" y="180.00126265847086" as="sourcePoint"/><mxPoint x="291.0025253169417" y="180.00126265847086" as="targetPoint"/></mxGeometry></mxCell></root></mxGraphModel></diagram></mxfile>